<?xml version="1.0" encoding="UTF-8"?>
<svg id="Layer_2" xmlns="http://www.w3.org/2000/svg" viewBox="0 0 974.46 707.7">
  <defs>
    <style>
      .cls-1 {
        fill: #9c4706;
      }

      .cls-2 {
        fill: #311f18;
      }

      .cls-3 {
        fill: #88340a;
      }
    </style>
  </defs>
  <g id="Layer_1-2" data-name="Layer_1">
    <g>
      <g>
        <path class="cls-2" d="M297.55,502.11v114.24h-37.38v-107.37c0-18.68-4.04-32.52-12.12-41.52-8.09-8.99-19.03-13.48-32.84-13.48-14.49,0-26.02,4.67-34.61,14.01-8.58,9.35-12.87,23.73-12.87,43.11v105.24h-37.89v-107.37c0-18.68-3.96-32.52-11.88-41.52-7.92-8.99-18.78-13.48-32.58-13.48-14.83,0-26.53,4.67-35.12,14.01-8.59,9.35-12.88,23.73-12.88,43.11v105.24H0v-194.62h7.46c16.3.31,25.95,8.94,28.92,25.9,5.05-8.11,12.37-15.16,21.96-21.15,9.61-5.99,21.13-9,34.62-9,14.81,0,27.6,3.18,38.39,9.52,9.57,5.64,17.43,13.25,23.55,22.8,1.89,4.72,3.49,9.17,4.84,13.3.54-3.57,1.07-8.6.98-14.66,5.63-7.21,12.77-13.83,21.4-19.87,10.62-7.39,23.83-11.11,39.66-11.11,23.91,0,42.51,7.6,55.82,22.75,13.29,15.16,19.96,35.8,19.96,61.89Z"/>
        <path class="cls-2" d="M943.94,421.72h-3.82c.17-.01.33-.01.5-.01h2.52c.26,0,.54,0,.8.01Z"/>
        <path class="cls-2" d="M905.55,425.95v29.08c0,3.18-1.34,4.76-4.03,4.76h-12.13c-17.85,0-30.14,4.76-36.87,14.28-6.74,9.52-10.1,24.51-10.1,44.95v77.24h.07v20.08h-37.4v-3.65c-.05-.35-.06-.73-.06-1.12v-185.64c0-.36.01-.69.06-1v-3.22h3.49c.16-.01.33-.01.49-.01h2.54c.26,0,.52,0,.77.01h.08c.34,0,.69.02,1.04.03.27.01.56.03.83.05l.64.05c.9.08,1.79.18,2.64.3.36.07.71.11,1.06.18,5.25,1.01,9.72,3.18,13.38,6.53.67.58,1.29,1.22,1.88,1.88.15.17.28.33.42.5,3.85,4.59,6.2,10.78,7.06,18.51.06,2.89.03,5.63-.06,8.17,1.97-3.63,4.88-9.81,6.52-17.93,4.54-5.71,9.64-9.86,15.24-12.45,8.43-3.87,19.38-5.82,32.85-5.82h5.56c.16,0,.33,0,.48.01,2.38.17,3.55,1.58,3.55,4.23Z"/>
        <path class="cls-1" d="M974.46,421.73v5.69c0,3.42-.43,6.84-1.42,10.1v.06c-4.22,13.82-13.8,20.87-28.71,21.14h-7.76v-36.99h37.89Z"/>
        <path class="cls-2" d="M905.55,421.73v4.22c0-2.64-1.17-4.05-3.55-4.22h3.55Z"/>
        <path class="cls-2" d="M905.55,455.03v4.76h-4.04c2.7,0,4.04-1.58,4.04-4.76Z"/>
        <path class="cls-2" d="M671.96,416.95c-56.37,0-102.09,45.7-102.09,102.08s45.71,102.09,102.09,102.09,102.09-45.71,102.09-102.09-45.7-102.08-102.09-102.08ZM733.23,535.44c-4.92,13.98-13.97,26.05-25.66,34.75-.62.43-1.22.87-1.85,1.31-.01.01-.03.02-.05.02-8.73,5.23-18.89,8.34-29.79,8.62-3.06.08-6.08-.08-9.03-.44-4.34-.52-8.53-1.49-12.55-2.92-7.55-2.59-14.43-6.66-20.32-11.86-1.61-1.39-3.12-2.87-4.57-4.43-9.73-10.54-15.79-24.48-16.19-39.91-.76-30.31,20.65-56.02,49.48-61.57,2.29-.44,4.61-.76,7.01-.93,1.01-.08,2.03-.14,3.05-.16,13.53-.35,26.15,3.74,36.46,10.94,5.31,3.68,10.01,8.2,13.91,13.36,3.45,4.57,6.28,9.64,8.35,15.09,2.39,6.28,3.77,13.07,3.95,20.15.16,6.24-.63,12.28-2.21,17.98Z"/>
        <path class="cls-2" d="M532.68,421.72c-.14-.01-.26-.01-.42-.01h-2.53c-.25,0-.48,0-.71.01h-.68c-14.4.27-23.6,7.05-27.59,20.32-17.94-15.63-41.38-25.09-67.04-25.09-56.38,0-102.09,45.7-102.09,102.08s45.7,102.09,102.09,102.09c22.01,0,42.4-6.97,59.07-18.82,0,0,.01-.01.02-.01,1.97-2.39,3.84-4.76,5.59-7.1,4.82-6.4,8.81-12.48,12.07-17.94-1.57,4.61-3.62,9.93-6.33,15.67h-.01c-1.65,3.51-3.54,7.16-5.73,10.91v12.51h37.4v-194.62h-3.12ZM492.61,535.44c-4.92,13.98-13.95,26.05-25.66,34.75-.6.43-1.22.87-1.85,1.31-.01.01-.03.02-.05.02-8.73,5.23-18.89,8.34-29.78,8.62-3.08.08-6.09-.08-9.04-.44-4.34-.52-8.53-1.49-12.55-2.92-7.55-2.59-14.43-6.66-20.32-11.86-1.61-1.39-3.12-2.87-4.57-4.43-9.73-10.54-15.78-24.48-16.19-39.91-.76-30.31,20.65-56.02,49.48-61.57,2.29-.44,4.61-.76,7.01-.93,1.01-.08,2.03-.14,3.06-.16,13.53-.35,26.14,3.74,36.46,10.94,5.3,3.68,10,8.2,13.91,13.36,3.44,4.57,6.26,9.64,8.35,15.09,2.38,6.28,3.76,13.07,3.94,20.15.16,6.24-.63,12.28-2.21,17.98Z"/>
        <rect class="cls-2" x="936.56" y="474.79" width="37.89" height="141.56"/>
      </g>
      <g>
        <path class="cls-3" d="M591.64,122.8l-.69,3.56-12.9,66.44-1.43,7.32v.02c-.05.12-.11.25-.17.37-.08.18-.16.36-.24.53-.15.3-.3.59-.46.87h0c-.33.58-.68,1.14-1.06,1.67-.39.53-.8,1.05-1.23,1.54-.44.49-.9.95-1.39,1.39-1.21,1.1-2.57,2.04-4.04,2.79-.74.37-1.51.7-2.3.97-.8.27-1.62.49-2.45.65-1.12.21-2.27.33-3.45.33-.66,0-1.31-.03-1.96-.1-.4-.04-.78-.1-1.17-.17-.29-.04-.57-.1-.86-.17-.27-.06-.54-.12-.81-.2-.8-.21-1.57-.48-2.31-.8-.24-.1-.48-.21-.73-.33-.27-.12-.55-.27-.82-.41-.27-.15-.53-.3-.78-.46-.1-.05-.2-.11-.3-.17-.1-.07-.19-.13-.29-.19-.1-.07-.19-.13-.29-.2-.1-.07-.19-.12-.29-.19-.18-.14-.37-.27-.55-.41-.18-.14-.36-.28-.53-.43-.09-.07-.18-.15-.26-.23-.21-.17-.4-.35-.59-.54-.05-.05-.11-.11-.17-.16-.07-.07-.14-.13-.21-.2-.07-.07-.14-.14-.21-.21-.14-.14-.27-.27-.39-.42-.21-.24-.43-.49-.64-.75-.04-.06-.1-.12-.14-.18-1.9-2.49-2.13-5.85-.84-8.71.09-.17.17-.33.26-.5.55-1,1.08-2.04,1.59-3.07h0s0,0,0,0c.3-.63.6-1.27.9-1.9.88-1.92,1.71-3.87,2.47-5.85.51-1.32.99-2.65,1.45-3.99s.89-2.7,1.28-4.07c2.63-8.96,4.02-18.44,4.02-28.26,0-36.27-19.19-68.03-47.97-85.74-3.47-2.12-4.61-6.63-2.6-10.16,3.26-5.75,7.04-11.1,11.29-16.04,3.12-2.76,6.08-4.51,8.18-5.58,2.25-1.15,7.4-3.77,13.16-3.77,2.01,0,4.02.24,5.92.71,3.38.75,6.55,2.16,9.35,4.1,4.15,2.82,7.53,6.73,9.68,11.3l.14.29.68,1.63.87,2.04,1.61,3.81,12.16,28.96,2.66,6.33.73,1.78,7.25,17.24c2.37,5.66,3.01,11.87,1.85,17.89Z"/>
        <path class="cls-3" d="M571.53,223.95c-.02.06-.05.12-.06.18-.01.07-.04.14-.07.21-1.66,4.87-3.83,9.53-6.42,13.88-6.7,11.29-16.27,20.69-27.7,27.21-6,3.41-12.51,6-19.39,7.68-.7.16-1.38.33-2.09.47-.7.14-1.39.29-2.1.41-.7.13-1.41.24-2.12.36-.62.1-1.25.18-1.87.26-.45.06-.92.11-1.37.17-.58.05-1.17.11-1.75.17-.62.05-1.21.1-1.82.13-.84.06-1.68.08-2.51.11h-.2c-.65.02-1.3.03-1.94.03-.86,0-1.69-.01-2.53-.06-.23.02-.47,0-.7-.01-.84-.03-1.68-.08-2.51-.14h-.05c-.9-.07-1.78-.15-2.64-.26-.52-.05-1.03-.11-1.56-.2-1.12-.14-2.23-.32-3.34-.51-.62-.11-1.24-.23-1.84-.36-1.24-.23-2.44-.51-3.65-.84-.61-.15-1.21-.32-1.81-.48-.81-.23-1.6-.47-2.4-.73-11.91-3.82-22.54-10.54-31.07-19.33-.01-.01-.03-.02-.04-.04-1.4-1.52-2.77-3.1-4.08-4.71-1.69-2.07-3.29-4.2-4.8-6.42-.08-.11-.17-.24-.24-.36-.01,0-.01-.01-.03-.02-.17-.24-.34-.5-.49-.74-.26-.37-.51-.75-.75-1.14-1-1.55-1.97-3.15-2.91-4.75-.18-.31-.35-.61-.52-.91-.03-.03-.05-.05-.07-.11-3.77-6.73-6.83-14-9.03-21.71,0-.01-.02-.04-.02-.05-.01-.03-.01-.05-.02-.07v-.02c-.81-2.81-1.51-5.71-2.07-8.65l-20.15-103.68v-.02l-.47-2.36h0s-2.09-10.72-2.09-10.72l-1.77-9.12-1.46-7.49-.18-.92-1-5.21-7.4-38.06h0s-.29-1.46-.29-1.46c-2.07-9.16-10.28-16.02-20.09-16.02-2.76,0-5.38.54-7.79,1.52,7.53-3.28,15.46-5.68,23.68-7.07v-.07c5.46-1.08,10.89-1.68,16.29-1.86.17,0,.33-.01.49-.01.94-.03,1.89-.04,2.83-.04,4.62,0,9.21.31,13.71.95h.02c28.5,3.88,54.04,19.71,70.26,43.19,1.63,2.32,3.15,4.73,4.57,7.22.47.82.94,1.65,1.37,2.48,1.65,3.05,3.15,6.19,4.47,9.44.13.3.26.61.37.92.06.11.1.23.14.34.04.1.07.2.11.3.37.92.73,1.84,1.05,2.81.23.61.44,1.22.65,1.84.51,1.49.98,3,1.4,4.52h0c.12.4.24.8.34,1.19.61,2.17,1.15,4.36,1.57,6.57l6.31,32.46,1.73,8.9.13.65.26,1.35,13.93,71.59,2.56,13.19,1.01,5.21.33,1.66c.06.5.11,1,.21,1.48.12.93.34,1.84.61,2.73h0s.01.02.01.02c2.77,9.52,11.56,16.46,21.97,16.46,9.31,0,17.32-5.56,20.9-13.55Z"/>
        <path class="cls-3" d="M375.36,207.95c2.1,2.83,2.98,6.38,2.31,9.84l-10.54,54.22c-.24,1.22-.53,2.41-.87,3.59v.03s-2.09,10.7-2.09,10.7c-3.31,17.05-18.25,29.37-35.62,29.37h-74.97l14.81-76.14,30.34-156.06c3.37-17.37,10.9-32.84,21.38-45.62,1.24-1.48,2.67-2.81,4.22-3.96,4.27-3.21,9.57-5.1,15.32-5.1,2,0,3.96.23,5.82.68,8.59,1.97,15.53,8.29,18.39,16.51l.09.23c.26.81.5,1.62.68,2.46.07.01.13.01.2.01l11.21,31.31c1.08,3.01.55,6.35-1.33,8.94-12.06,16.58-19.16,36.98-19.16,59.05s7.36,43.2,19.82,59.94Z"/>
        <path class="cls-3" d="M767.07,315.7h-71.75c-19.58,0-36.68-13.27-41.54-32.23l-3.6-14.06-13.51-52.6-1.91-7.46-.45-1.73-32.91-128.33-.11-.42-14.36-55.92h0s-.39-1.47-.39-1.47c-.84-1.89-4.81-10.25-14.22-13.71-4.58-1.69-8.71-1.54-11.17-1.26,1.12-.41,2.24-.81,3.37-1.2,4.73-1.57,9.58-2.8,14.53-3.69,1.33-.23,2.68-.44,4.04-.62.72-.09,1.43-.2,2.15-.27.56-.07,1.1-.13,1.66-.17.7-.07,1.41-.12,2.11-.19.68-.04,1.37-.09,2.05-.13,1.74-.12,3.47-.15,5.21-.15h1.24c.29-.01.57-.01.86-.03h.13c.9-.03,1.81-.04,2.71-.04,48.38,0,93.65,34.21,106.31,83.48l56.99,222.13h-.01l2.58,10.08Z"/>
      </g>
      <g>
        <path class="cls-2" d="M92.28,703.37c0-.43.14-.65.42-.65.15,0,.29.08.42.23.65.77,1.38,1.38,2.21,1.82.83.44,1.83.66,3.02.66,1.33,0,2.37-.26,3.1-.79.73-.53,1.1-1.24,1.1-2.15,0-.65-.24-1.17-.71-1.57-.47-.4-1.08-.74-1.81-1.02-.73-.28-1.52-.56-2.36-.84-.84-.28-1.62-.62-2.36-1.02-.73-.4-1.33-.92-1.81-1.57-.47-.65-.71-1.48-.71-2.52s.26-1.88.79-2.61c.53-.73,1.24-1.3,2.15-1.69.9-.4,1.94-.6,3.1-.6.88,0,1.68.08,2.4.23.72.15,1.38.37,1.99.65,1.08.39,1.49,1.03,1.23,1.94l-.16.65c-.04.22-.13.32-.26.32-.09,0-.25-.06-.48-.19-.67-.43-1.4-.77-2.21-1.02-.81-.25-1.65-.37-2.53-.37-1.01,0-1.85.23-2.52.68-.67.45-1,1.09-1,1.9,0,.67.24,1.21.71,1.61.47.41,1.08.75,1.81,1.02.73.27,1.52.54,2.36.82.84.28,1.62.61,2.36.98.73.38,1.33.88,1.81,1.5.47.62.71,1.43.71,2.42,0,1.64-.56,2.96-1.69,3.97-1.13,1.01-2.71,1.52-4.73,1.52-1.46,0-2.66-.24-3.6-.71s-1.63-1.05-2.07-1.73c-.44-.68-.66-1.31-.66-1.89Z"/>
        <path class="cls-2" d="M142.76,702.41l-1.61,4.55c-.09.26-.25.39-.48.39h-1.9c-.22,0-.28-.1-.19-.29l6.52-17.37c.06-.19.18-.29.35-.29h.61c.62,0,1.11.13,1.45.39s.65.73.9,1.42l5.97,15.85c.09.19.01.29-.23.29h-1.9c-.19,0-.32-.03-.39-.1-.06-.06-.13-.16-.19-.29l-1.65-4.55h-7.26ZM143.54,700.21h5.71l-2.87-7.81-2.84,7.81Z"/>
        <path class="cls-2" d="M195.42,707.67c-1.27,0-2.32-.2-3.16-.6s-1.5-.92-1.97-1.58c-.47-.66-.81-1.38-1-2.18-.19-.8-.29-1.59-.29-2.39v-11.23c0-.19.09-.29.26-.29h.23c1.31,0,1.97.76,1.97,2.29v8.81c0,1.42.28,2.59.86,3.5.57.92,1.6,1.37,3.08,1.37,1.01,0,1.81-.21,2.41-.65.59-.43,1.02-1.02,1.27-1.76.26-.74.39-1.58.39-2.5v-10.78c0-.19.09-.29.26-.29h.23c1.29,0,1.94.76,1.94,2.29v9.17c0,.67-.09,1.39-.27,2.18-.18.79-.51,1.53-.97,2.24-.46.71-1.11,1.29-1.95,1.73s-1.93.66-3.26.66ZM192.64,687.43l2.36-2.13c.21-.21.47-.32.77-.32h2.13c.11,0,.17.03.19.1.02.06-.01.13-.1.19l-2.61,2.1c-.26.24-.57.35-.94.35h-1.68c-.09,0-.15-.04-.18-.11-.03-.07-.02-.13.05-.18Z"/>
        <path class="cls-2" d="M238.38,707.34c-.17,0-.26-.1-.26-.29v-17.37c0-.19.09-.29.26-.29h5.04c1.76,0,3.32.31,4.66.92,1.34.61,2.4,1.56,3.16,2.84.76,1.28,1.15,2.93,1.15,4.96,0,2.13-.38,3.88-1.15,5.25-.76,1.37-1.83,2.37-3.21,3.02-1.38.65-3,.97-4.87.97h-4.78ZM240.58,705.05h2.84c2.09,0,3.68-.56,4.78-1.69s1.65-2.85,1.65-5.15-.56-4.07-1.68-5.05c-1.12-.98-2.74-1.47-4.87-1.47h-2.71v13.36Z"/>
        <path class="cls-2" d="M290.81,705.05h6.36c.49,0,.86.13,1.1.39.24.26.35.6.35,1.03v.52c0,.24-.12.35-.35.35h-9.65c-.17,0-.26-.1-.26-.29v-17.37c0-.19.09-.29.26-.29h8.26c.97,0,1.45.46,1.45,1.39v.55c0,.24-.12.36-.35.36h-7.17v5.58h5.49c.95,0,1.42.47,1.42,1.42v.52c0,.22-.12.32-.36.32h-6.55v5.52Z"/>
        <path class="cls-2" d="M372.35,707.34c-.17,0-.26-.1-.26-.29v-17.37c0-.19.09-.29.26-.29h.23c1.31,0,1.97.76,1.97,2.29v15.37c0,.19-.09.29-.26.29h-1.94Z"/>
        <path class="cls-2" d="M421.45,702.89v-13.2c0-.19.09-.29.26-.29h.23c1.29,0,1.94.76,1.94,2.29v15.37c0,.19-.08.29-.23.29h-1.74c-.3,0-.54-.14-.71-.42l-7.75-12.59v12.72c0,.19-.09.29-.26.29h-1.94c-.17,0-.26-.1-.26-.29v-17.37c0-.19.09-.29.26-.29h.58c.62,0,1.08.12,1.37.35s.59.6.89,1.1l7.36,12.04Z"/>
        <path class="cls-2" d="M463.86,691.69h-4.87c-.17,0-.26-.1-.26-.29v-1.71c0-.19.09-.29.26-.29h11.07c.99,0,1.48.46,1.48,1.39v.55c0,.24-.12.36-.35.36h-4.91v15.37c0,.19-.08.29-.23.29h-1.9c-.19,0-.29-.1-.29-.29v-15.37Z"/>
        <path class="cls-2" d="M508.77,705.05h6.36c.5,0,.86.13,1.1.39.24.26.35.6.35,1.03v.52c0,.24-.12.35-.35.35h-9.65c-.17,0-.26-.1-.26-.29v-17.37c0-.19.08-.29.26-.29h8.26c.97,0,1.45.46,1.45,1.39v.55c0,.24-.12.36-.36.36h-7.17v5.58h5.49c.95,0,1.42.47,1.42,1.42v.52c0,.22-.12.32-.36.32h-6.55v5.52Z"/>
        <path class="cls-2" d="M554.35,705.05h5.39c.47,0,.83.13,1.07.39.24.26.36.6.36,1.03v.52c0,.24-.11.35-.32.35h-8.68c-.17,0-.26-.1-.26-.29v-17.37c0-.19.08-.29.26-.29h.23c1.31,0,1.97.76,1.97,2.29v13.36Z"/>
        <path class="cls-2" d="M596.38,707.34c-.17,0-.26-.1-.26-.29v-17.37c0-.19.08-.29.26-.29h.23c1.31,0,1.97.76,1.97,2.29v15.37c0,.19-.09.29-.26.29h-1.94Z"/>
        <path class="cls-2" d="M647.22,703.89v-3.78h-3.36c-.47,0-.83-.13-1.08-.39-.25-.26-.37-.6-.37-1.03v-.52c0-.24.11-.35.32-.35h6.52c.21,0,.32.11.32.32v5.94c0,.32-.04.57-.13.74-.09.17-.25.38-.48.61-.84.69-1.76,1.24-2.76,1.65-1,.41-2.1.61-3.31.61-1.57,0-2.99-.35-4.26-1.06-1.27-.71-2.27-1.76-3-3.15-.73-1.39-1.1-3.1-1.1-5.15,0-1.89.35-3.54,1.05-4.92.7-1.39,1.69-2.46,2.97-3.23,1.28-.76,2.78-1.15,4.5-1.15.95,0,1.78.08,2.5.24.72.16,1.38.38,1.99.66.56.22.94.47,1.13.77.19.3.24.69.13,1.16l-.16.68c-.09.22-.19.32-.32.32-.11,0-.26-.06-.45-.19-.67-.41-1.4-.73-2.2-.97s-1.62-.35-2.49-.35c-1.92,0-3.42.6-4.5,1.79s-1.63,2.98-1.63,5.34c0,2.17.52,3.86,1.55,5.07,1.03,1.21,2.46,1.81,4.29,1.81.75,0,1.5-.11,2.23-.32.73-.21,1.43-.6,2.1-1.16Z"/>
        <path class="cls-2" d="M687.93,705.05h6.36c.5,0,.86.13,1.1.39.24.26.35.6.35,1.03v.52c0,.24-.12.35-.35.35h-9.65c-.17,0-.26-.1-.26-.29v-17.37c0-.19.08-.29.26-.29h8.26c.97,0,1.45.46,1.45,1.39v.55c0,.24-.12.36-.36.36h-7.17v5.58h5.49c.95,0,1.42.47,1.42,1.42v.52c0,.22-.12.32-.36.32h-6.55v5.52Z"/>
        <path class="cls-2" d="M741.52,702.89v-13.2c0-.19.09-.29.26-.29h.23c1.29,0,1.94.76,1.94,2.29v15.37c0,.19-.08.29-.23.29h-1.74c-.3,0-.54-.14-.71-.42l-7.75-12.59v12.72c0,.19-.09.29-.26.29h-1.94c-.17,0-.26-.1-.26-.29v-17.37c0-.19.08-.29.26-.29h.58c.62,0,1.08.12,1.37.35.29.24.59.6.89,1.1l7.36,12.04Z"/>
        <path class="cls-2" d="M783.93,691.69h-4.88c-.17,0-.26-.1-.26-.29v-1.71c0-.19.09-.29.26-.29h11.07c.99,0,1.49.46,1.49,1.39v.55c0,.24-.12.36-.36.36h-4.91v15.37c0,.19-.08.29-.23.29h-1.91c-.19,0-.29-.1-.29-.29v-15.37Z"/>
        <path class="cls-2" d="M828.84,705.05h6.36c.5,0,.86.13,1.1.39.24.26.35.6.35,1.03v.52c0,.24-.12.35-.35.35h-9.65c-.17,0-.26-.1-.26-.29v-17.37c0-.19.08-.29.26-.29h8.26c.97,0,1.45.46,1.45,1.39v.55c0,.24-.12.36-.36.36h-7.17v5.58h5.49c.95,0,1.42.47,1.42,1.42v.52c0,.22-.12.32-.36.32h-6.55v5.52Z"/>
      </g>
    </g>
  </g>
</svg>