<?xml version="1.0" encoding="UTF-8"?>
<svg id="Layer_2" xmlns="http://www.w3.org/2000/svg" viewBox="0 0 1411.35 280.31">
  <defs>
    <style>
      .cls-1 {
        fill: #311f18;
      }

      .cls-2 {
        fill: #88340a;
      }
    </style>
  </defs>
  <g id="Layer_1-2" data-name="Layer_1">
    <g>
      <path class="cls-1" d="M810.42,132.68v101.42h-33.19v-95.32c0-16.58-3.59-28.87-10.76-36.86-7.18-7.98-16.9-11.96-29.15-11.96-12.86,0-23.1,4.15-30.72,12.44-7.61,8.3-11.43,21.06-11.43,38.28v93.43h-33.63v-95.32c0-16.58-3.52-28.87-10.55-36.86-7.03-7.98-16.68-11.96-28.92-11.96-13.17,0-23.55,4.15-31.18,12.44-7.62,8.3-11.44,21.06-11.44,38.28v93.43h-33.19V61.32h6.62c14.47.27,23.04,7.94,25.68,23,4.48-7.2,10.98-13.46,19.5-18.78,8.53-5.32,18.76-7.99,30.73-7.99,13.15,0,24.5,2.82,34.08,8.45,8.49,5.01,15.47,11.76,20.9,20.24,1.68,4.19,3.09,8.14,4.3,11.81.48-3.17.95-7.64.87-13.01,5-6.4,11.34-12.28,19-17.64,9.42-6.56,21.16-9.86,35.21-9.86,21.23,0,37.74,6.74,49.55,20.19,11.8,13.46,17.72,31.78,17.72,54.94Z"/>
      <path class="cls-1" d="M1384.26,61.32h-3.39c.15-.01.29-.01.44-.01h2.23c.23,0,.48,0,.71.01Z"/>
      <path class="cls-1" d="M1350.18,65.07v25.82c0,2.82-1.19,4.23-3.58,4.23h-10.77c-15.85,0-26.76,4.23-32.73,12.68-5.99,8.45-8.97,21.76-8.97,39.9v68.57h.06v17.83h-33.2v-3.24c-.04-.31-.05-.65-.05-.99V65.07c0-.32.01-.62.05-.89v-2.86h3.09c.14-.01.29-.01.43-.01h2.26c.23,0,.47,0,.69.01h.07c.3,0,.62.02.92.03.24.01.5.03.74.04l.57.04c.8.07,1.59.16,2.35.26.32.06.63.1.94.16,4.66.9,8.63,2.82,11.88,5.79.6.52,1.14,1.08,1.67,1.67.13.15.25.29.37.45,3.42,4.08,5.5,9.57,6.27,16.43.05,2.57.03,5-.05,7.25,1.75-3.23,4.33-8.71,5.78-15.92,4.03-5.07,8.56-8.76,13.53-11.05,7.48-3.44,17.2-5.17,29.16-5.17h4.93c.14,0,.29,0,.42.01,2.11.15,3.16,1.41,3.16,3.75Z"/>
      <path class="cls-2" d="M1411.35,61.32v5.05c0,3.03-.38,6.07-1.26,8.97v.05c-3.74,12.27-12.25,18.52-25.49,18.77h-6.89v-32.84h33.63Z"/>
      <path class="cls-1" d="M1350.18,61.32v3.74c0-2.34-1.04-3.6-3.16-3.74h3.16Z"/>
      <path class="cls-1" d="M1350.18,90.89v4.23h-3.58c2.39,0,3.58-1.4,3.58-4.23Z"/>
      <path class="cls-1" d="M1142.8,57.08c-50.05,0-90.63,40.57-90.63,90.63s40.58,90.63,90.63,90.63,90.63-40.58,90.63-90.63-40.57-90.63-90.63-90.63ZM1197.2,162.27c-4.37,12.41-12.4,23.13-22.78,30.85-.55.38-1.08.77-1.64,1.16-.01.01-.03.02-.04.02-7.75,4.64-16.77,7.4-26.44,7.66-2.72.07-5.4-.07-8.02-.39-3.85-.47-7.57-1.32-11.14-2.59-6.7-2.3-12.81-5.92-18.04-10.53-1.43-1.23-2.77-2.55-4.06-3.93-8.64-9.35-14.02-21.73-14.37-35.43-.68-26.91,18.33-49.73,43.93-54.66,2.03-.39,4.1-.68,6.22-.83.9-.07,1.8-.12,2.71-.14,12.01-.31,23.22,3.32,32.37,9.71,4.71,3.27,8.89,7.28,12.35,11.86,3.06,4.05,5.57,8.55,7.41,13.4,2.12,5.57,3.35,11.6,3.51,17.89.14,5.54-.56,10.9-1.96,15.96Z"/>
      <path class="cls-1" d="M1019.16,61.32c-.12-.01-.23-.01-.37-.01h-2.24c-.22,0-.42,0-.63.01h-.61c-12.78.24-20.95,6.26-24.49,18.04-15.93-13.87-36.74-22.28-59.51-22.28-50.06,0-90.63,40.57-90.63,90.63s40.57,90.63,90.63,90.63c19.54,0,37.64-6.19,52.44-16.71,0,0,.01,0,.02,0,1.75-2.12,3.41-4.23,4.97-6.3,4.28-5.68,7.82-11.08,10.72-15.93-1.4,4.1-3.22,8.82-5.62,13.91h-.01c-1.47,3.11-3.14,6.36-5.09,9.69v11.1h33.2V61.32h-2.77ZM983.58,162.27c-4.37,12.41-12.39,23.13-22.78,30.85-.54.38-1.08.77-1.64,1.16-.01.01-.03.02-.04.02-7.75,4.64-16.77,7.4-26.43,7.66-2.73.07-5.41-.07-8.03-.39-3.85-.47-7.57-1.32-11.14-2.59-6.7-2.3-12.81-5.92-18.04-10.53-1.43-1.23-2.77-2.55-4.06-3.93-8.64-9.35-14.01-21.73-14.37-35.43-.68-26.91,18.33-49.73,43.93-54.66,2.03-.39,4.1-.68,6.22-.83.9-.07,1.8-.12,2.72-.14,12.01-.31,23.21,3.32,32.37,9.71,4.7,3.27,8.88,7.28,12.35,11.86,3.05,4.05,5.56,8.55,7.41,13.4,2.11,5.57,3.34,11.6,3.5,17.89.14,5.54-.56,10.9-1.96,15.96Z"/>
      <rect class="cls-1" x="1377.71" y="108.43" width="33.64" height="125.67"/>
    </g>
    <g>
      <path class="cls-2" d="M300.15,109.03l-.61,3.16-11.45,58.99-1.27,6.5v.02c-.05.11-.1.22-.15.33-.07.16-.14.32-.22.47-.13.26-.27.52-.41.78h0c-.29.52-.6,1.01-.94,1.48-.34.47-.71.93-1.09,1.37-.39.43-.8.84-1.23,1.23-1.07.98-2.28,1.82-3.59,2.48-.66.33-1.34.62-2.04.86-.71.24-1.44.44-2.17.58-.99.19-2.02.29-3.07.29-.59,0-1.17-.03-1.74-.09-.35-.04-.7-.08-1.04-.15-.25-.04-.51-.08-.76-.15-.24-.05-.48-.11-.72-.17-.71-.19-1.39-.43-2.05-.71-.22-.08-.43-.18-.64-.29-.24-.11-.49-.24-.73-.36-.24-.13-.47-.26-.7-.41-.08-.05-.17-.1-.26-.15-.08-.06-.17-.12-.25-.17-.08-.06-.17-.12-.25-.17-.08-.06-.17-.11-.25-.17-.16-.12-.33-.24-.49-.36-.16-.12-.32-.25-.47-.38-.08-.06-.16-.13-.23-.2-.18-.15-.36-.31-.53-.48-.05-.05-.1-.09-.15-.14-.06-.06-.12-.12-.18-.17-.06-.06-.13-.12-.18-.18-.12-.12-.24-.24-.35-.37-.19-.21-.38-.44-.57-.66-.04-.05-.09-.11-.13-.16-1.69-2.21-1.89-5.2-.74-7.73.08-.15.15-.29.23-.44.49-.89.96-1.81,1.41-2.73h0s0,0,0,0c.27-.56.53-1.12.8-1.69.78-1.7,1.51-3.44,2.2-5.19.45-1.17.88-2.35,1.29-3.55.41-1.19.79-2.4,1.14-3.61,2.33-7.96,3.57-16.37,3.57-25.09,0-32.2-17.04-60.41-42.59-76.13-3.08-1.88-4.09-5.88-2.31-9.02,2.9-5.11,6.25-9.86,10.02-14.24,2.77-2.45,5.4-4,7.26-4.96,1.99-1.02,6.57-3.35,11.69-3.35,1.79,0,3.57.22,5.26.63,3,.67,5.82,1.92,8.3,3.64,3.68,2.5,6.69,5.98,8.6,10.04l.12.26.6,1.45.78,1.82,1.43,3.38,10.8,25.71,2.36,5.62.65,1.58,6.44,15.3c2.1,5.02,2.68,10.54,1.64,15.88Z"/>
      <path class="cls-2" d="M282.31,198.84c-.02.05-.04.11-.05.16-.01.06-.04.13-.06.19-1.47,4.32-3.4,8.46-5.7,12.33-5.95,10.03-14.45,18.37-24.6,24.16-5.33,3.02-11.11,5.33-17.22,6.82-.62.14-1.22.29-1.86.42-.62.13-1.23.25-1.86.36-.62.12-1.25.22-1.88.32-.55.09-1.11.16-1.66.23-.4.05-.82.1-1.22.15-.52.05-1.04.1-1.56.15-.55.04-1.07.09-1.61.12-.74.05-1.49.07-2.23.1h-.17c-.58.02-1.15.03-1.73.03-.76,0-1.5-.01-2.25-.05-.2.02-.42,0-.62-.01-.74-.03-1.49-.07-2.23-.13h-.05c-.8-.06-1.58-.14-2.35-.23-.46-.05-.92-.1-1.38-.17-1-.13-1.98-.28-2.97-.45-.55-.1-1.1-.21-1.64-.32-1.1-.2-2.17-.45-3.24-.74-.54-.14-1.07-.28-1.6-.43-.72-.21-1.42-.42-2.13-.64-10.58-3.39-20.02-9.36-27.58-17.16-.01-.01-.03-.02-.04-.04-1.25-1.35-2.46-2.75-3.62-4.18-1.5-1.84-2.92-3.73-4.26-5.7-.07-.1-.15-.21-.22-.32-.01,0-.01-.01-.03-.02-.15-.22-.3-.44-.44-.66-.23-.33-.45-.66-.67-1.01-.89-1.37-1.75-2.8-2.59-4.22-.16-.28-.31-.54-.46-.81-.03-.03-.05-.05-.06-.1-3.35-5.97-6.06-12.43-8.02-19.28,0-.01-.02-.04-.02-.05-.01-.03-.01-.04-.02-.06v-.02c-.72-2.5-1.34-5.07-1.84-7.68l-17.89-92.06v-.02l-.42-2.09h0s-1.85-9.52-1.85-9.52l-1.57-8.09-1.3-6.65-.16-.82-.89-4.63-6.57-33.79h0s-.25-1.3-.25-1.3c-1.84-8.13-9.13-14.22-17.84-14.22-2.45,0-4.78.48-6.91,1.35,6.69-2.91,13.73-5.04,21.03-6.28v-.06c4.84-.96,9.67-1.49,14.46-1.65.15,0,.29-.01.44-.01.83-.03,1.68-.04,2.51-.04,4.11,0,8.18.27,12.17.84h.02c25.3,3.44,47.98,17.5,62.38,38.35,1.45,2.06,2.8,4.2,4.06,6.41.42.73.83,1.46,1.21,2.21,1.46,2.71,2.8,5.5,3.97,8.39.12.26.23.54.33.82.05.1.09.2.13.3.04.09.06.18.1.27.33.82.64,1.64.93,2.5.2.54.39,1.08.58,1.64.45,1.32.87,2.66,1.25,4.01h0c.11.35.21.71.31,1.06.54,1.93,1.02,3.87,1.4,5.84l5.6,28.82,1.54,7.9.12.58.23,1.2,12.36,63.57,2.27,11.71.9,4.63.29,1.47c.05.44.1.89.19,1.31.11.83.3,1.64.54,2.42h0s.01.02.01.02c2.46,8.45,10.26,14.61,19.5,14.61,8.27,0,15.38-4.94,18.56-12.03Z"/>
      <path class="cls-2" d="M108.13,184.63c1.87,2.51,2.65,5.67,2.05,8.74l-9.36,48.14c-.21,1.08-.47,2.14-.77,3.19v.03s-1.86,9.5-1.86,9.5c-2.94,15.14-16.2,26.07-31.62,26.07H0l13.15-67.6,26.94-138.56c2.99-15.42,9.68-29.16,18.99-40.51,1.1-1.31,2.37-2.5,3.74-3.52,3.79-2.85,8.5-4.53,13.6-4.53,1.78,0,3.52.2,5.17.61,7.63,1.75,13.79,7.36,16.33,14.66l.08.2c.23.72.44,1.44.61,2.18.06.01.11.01.18.01l9.95,27.8c.96,2.68.49,5.64-1.18,7.93-10.71,14.72-17.01,32.84-17.01,52.43s6.53,38.35,17.6,53.22Z"/>
      <path class="cls-2" d="M455.92,280.31h-63.71c-17.38,0-32.57-11.78-36.88-28.62l-3.2-12.49-11.99-46.71-1.7-6.63-.4-1.53-29.22-113.94-.09-.38-12.75-49.65h0s-.34-1.31-.34-1.31c-.74-1.67-4.27-9.1-12.63-12.17-4.07-1.5-7.74-1.37-9.92-1.12.99-.37,1.99-.72,3-1.06,4.2-1.39,8.5-2.49,12.9-3.28,1.18-.2,2.38-.39,3.58-.55.64-.08,1.27-.18,1.91-.24.5-.06.98-.12,1.47-.15.62-.06,1.25-.11,1.87-.17.6-.04,1.21-.08,1.82-.12,1.54-.11,3.08-.13,4.62-.13h1.1c.26-.01.51-.01.77-.02h.12c.8-.02,1.6-.04,2.41-.04,42.96,0,83.15,30.37,94.39,74.12l50.6,197.22h-.01l2.29,8.95Z"/>
    </g>
  </g>
</svg>