<?xml version="1.0" encoding="UTF-8"?>
<svg id="Layer_2" xmlns="http://www.w3.org/2000/svg" viewBox="0 0 1236.14 760">
  <defs>
    <style>
      .cls-1 {
        fill: #88340a;
      }
    </style>
  </defs>
  <g id="Layer_1-2" data-name="Layer_1">
    <g>
      <path class="cls-1" d="M813.82,295.63l-1.66,8.57-31.05,159.95-3.45,17.61v.04c-.13.3-.26.6-.41.9-.19.43-.39.86-.59,1.29-.36.72-.73,1.42-1.12,2.1h0c-.79,1.4-1.63,2.73-2.55,4.02-.93,1.29-1.92,2.52-2.96,3.71-1.06,1.17-2.17,2.29-3.35,3.35-2.9,2.65-6.18,4.92-9.73,6.72-1.79.9-3.63,1.69-5.54,2.33-1.92.66-3.89,1.19-5.89,1.57-2.69.52-5.47.79-8.31.79-1.59,0-3.16-.07-4.71-.24-.96-.1-1.89-.23-2.82-.4-.69-.1-1.37-.23-2.06-.41-.66-.14-1.3-.3-1.95-.47-1.93-.52-3.78-1.16-5.57-1.92-.59-.23-1.16-.5-1.75-.79-.66-.3-1.32-.64-1.97-.99-.64-.36-1.29-.72-1.89-1.1-.23-.13-.47-.27-.72-.41-.23-.16-.46-.31-.69-.46-.23-.16-.46-.31-.69-.47-.23-.16-.46-.3-.69-.46-.44-.33-.89-.64-1.32-.99-.44-.33-.86-.67-1.27-1.03-.21-.17-.43-.36-.63-.54-.5-.41-.97-.84-1.43-1.3-.13-.13-.27-.26-.4-.39-.17-.16-.33-.31-.5-.47-.17-.17-.34-.33-.5-.5-.33-.33-.64-.66-.94-1-.52-.57-1.03-1.19-1.55-1.8-.1-.14-.24-.29-.34-.44-4.58-5.99-5.12-14.09-2.02-20.96.21-.41.41-.79.62-1.2,1.33-2.42,2.6-4.91,3.83-7.4h0s.01-.01.01-.01c.73-1.52,1.45-3.05,2.16-4.58,2.12-4.62,4.11-9.31,5.95-14.08,1.23-3.18,2.39-6.38,3.49-9.61,1.1-3.23,2.13-6.51,3.09-9.8,6.32-21.58,9.69-44.4,9.69-68.03,0-87.31-46.2-163.78-115.48-206.4-8.36-5.11-11.1-15.95-6.27-24.45,7.85-13.85,16.94-26.73,27.17-38.62,7.51-6.65,14.64-10.85,19.69-13.43,5.41-2.78,17.81-9.09,31.69-9.09,4.85,0,9.69.59,14.25,1.7,8.13,1.82,15.77,5.21,22.51,9.87,9.99,6.78,18.13,16.21,23.31,27.21l.33.7,1.63,3.93,2.1,4.92,3.88,9.17,29.27,69.71,6.4,15.24,1.76,4.29,17.46,41.49c5.69,13.62,7.25,28.59,4.45,43.07Z"/>
      <path class="cls-1" d="M765.43,539.11c-.04.14-.11.3-.14.44-.03.17-.1.34-.17.52-3.99,11.72-9.23,22.94-15.45,33.42-16.12,27.18-39.17,49.81-66.69,65.5-14.45,8.2-30.12,14.45-46.69,18.49-1.67.39-3.32.79-5.04,1.13-1.67.34-3.35.69-5.05.99-1.67.31-3.39.59-5.09.86-1.5.24-3,.44-4.51.62-1.09.14-2.22.27-3.31.41-1.4.13-2.82.27-4.22.4-1.49.11-2.9.24-4.38.31-2.02.14-4.03.2-6.05.27h-.47c-1.57.04-3.12.07-4.68.07-2.06,0-4.08-.03-6.1-.14-.54.04-1.13,0-1.67-.03-2.02-.07-4.03-.2-6.05-.34h-.13c-2.16-.17-4.28-.37-6.37-.62-1.26-.13-2.49-.27-3.75-.47-2.7-.34-5.37-.76-8.04-1.23-1.5-.27-2.98-.56-4.44-.86-2.98-.54-5.88-1.23-8.78-2.02-1.47-.37-2.9-.76-4.35-1.16-1.95-.56-3.86-1.13-5.78-1.75-28.67-9.2-54.27-25.37-74.79-46.53-.03-.03-.07-.06-.1-.1-3.38-3.65-6.67-7.45-9.82-11.35-4.06-4.99-7.93-10.12-11.55-15.45-.2-.27-.41-.57-.59-.86-.03,0-.03-.03-.07-.06-.4-.59-.82-1.2-1.19-1.79-.62-.89-1.23-1.8-1.82-2.73-2.42-3.72-4.75-7.58-7.01-11.45-.44-.76-.84-1.47-1.26-2.19-.07-.07-.13-.13-.17-.27-9.09-16.2-16.44-33.71-21.73-52.27,0-.03-.04-.1-.04-.13-.03-.07-.03-.11-.06-.17v-.04c-1.96-6.77-3.63-13.74-4.99-20.82l-48.5-249.6v-.06l-1.13-5.68v-.03l-5.02-25.78-4.25-21.95-3.52-18.04-.44-2.22-2.42-12.55-17.81-91.61v-.03l-.69-3.49c-4.99-22.05-24.75-38.56-48.36-38.56-6.64,0-12.96,1.3-18.74,3.66,18.13-7.9,37.23-13.68,57.02-17.03l-.03-.17c13.16-2.59,26.25-4.03,39.25-4.48.4,0,.79-.03,1.19-.03,2.26-.07,4.55-.1,6.81-.1,11.13,0,22.18.74,33.01,2.29h.04c68.61,9.33,130.1,47.44,169.13,103.97,3.93,5.58,7.58,11.39,11,17.37,1.13,1.97,2.26,3.96,3.29,5.98,3.96,7.35,7.58,14.91,10.76,22.73.31.72.62,1.46.89,2.22.14.27.24.54.34.82.1.24.17.49.27.73.89,2.22,1.75,4.44,2.53,6.77.54,1.46,1.06,2.93,1.57,4.44,1.23,3.59,2.36,7.21,3.38,10.87v.03c.3.93.57,1.9.83,2.83,1.47,5.22,2.76,10.5,3.79,15.82l15.18,78.15,4.16,21.43.31,1.57.62,3.25,33.52,172.35,6.15,31.75,2.43,12.55.79,3.99c.14,1.2.27,2.4.52,3.56.3,2.25.82,4.44,1.47,6.57v.03l.03.03c6.67,22.91,27.83,39.62,52.88,39.62,22.42,0,41.69-13.39,50.32-32.61Z"/>
      <path class="cls-1" d="M293.17,500.6c5.07,6.81,7.17,15.37,5.55,23.7l-25.37,130.52c-.58,2.94-1.26,5.81-2.08,8.65l-.03.07-5,25.77c-7.97,41.05-43.92,70.7-85.74,70.7H0l35.65-183.28L108.7,201.02c8.1-41.8,26.25-79.06,51.48-109.83,2.97-3.56,6.43-6.77,10.15-9.54,10.29-7.72,23.04-12.27,36.88-12.27,4.82,0,9.54.55,14.01,1.64,20.68,4.75,37.4,19.96,44.27,39.75l.2.55c.62,1.95,1.2,3.9,1.64,5.91.17.03.31.03.48.03l26.98,75.38c2.6,7.26,1.33,15.28-3.2,21.51-29.04,39.92-46.13,89.03-46.13,142.15s17.72,103.99,47.71,144.29Z"/>
      <path class="cls-1" d="M1236.14,760h-172.74c-47.12,0-88.3-31.94-100-77.59l-8.66-33.86-32.51-126.64-4.6-17.97-1.09-4.16-79.22-308.93-.26-1.02-34.56-134.63v-.03l-.93-3.52c-2.01-4.54-11.57-24.68-34.24-32.99-11.03-4.06-20.97-3.71-26.89-3.04,2.69-.99,5.4-1.95,8.12-2.88,11.38-3.77,23.05-6.75,34.98-8.89,3.2-.54,6.46-1.05,9.72-1.5,1.73-.22,3.45-.48,5.18-.64,1.34-.16,2.65-.32,4-.42,1.69-.16,3.39-.29,5.08-.45,1.63-.1,3.29-.22,4.92-.32,4.19-.29,8.34-.35,12.53-.35h2.97c.7-.03,1.37-.03,2.08-.06h.32c2.17-.06,4.35-.1,6.52-.1,116.47,0,225.46,82.36,255.92,200.97l137.19,534.74h-.03l6.2,24.27Z"/>
    </g>
  </g>
</svg>